<svg width="18" height="22" viewBox="0 0 18 22" fill="none" xmlns="http://www.w3.org/2000/svg">
<path d="M9 18.8997L13.95 13.9497C14.9289 12.9707 15.5955 11.7234 15.8656 10.3656C16.1356 9.0077 15.9969 7.60028 15.4671 6.32123C14.9373 5.04219 14.04 3.94898 12.8889 3.17985C11.7378 2.41071 10.3844 2.00018 9 2.00018C7.61557 2.00018 6.26222 2.41071 5.11109 3.17985C3.95996 3.94898 3.06275 5.04219 2.53292 6.32123C2.00308 7.60028 1.86442 9.0077 2.13445 10.3656C2.40449 11.7234 3.07111 12.9707 4.05 13.9497L9 18.8997ZM9 21.7277L2.636 15.3637C1.37734 14.105 0.520187 12.5014 0.172928 10.7555C-0.17433 9.0097 0.00390685 7.20011 0.685099 5.55558C1.36629 3.91105 2.51984 2.50545 3.99988 1.51652C5.47992 0.527594 7.21998 -0.000244141 9 -0.000244141C10.78 -0.000244141 12.5201 0.527594 14.0001 1.51652C15.4802 2.50545 16.6337 3.91105 17.3149 5.55558C17.9961 7.20011 18.1743 9.0097 17.8271 10.7555C17.4798 12.5014 16.6227 14.105 15.364 15.3637L9 21.7277ZM9 10.9997C9.53044 10.9997 10.0391 10.789 10.4142 10.4139C10.7893 10.0388 11 9.53011 11 8.99968C11 8.46924 10.7893 7.96054 10.4142 7.58546C10.0391 7.21039 9.53044 6.99968 9 6.99968C8.46957 6.99968 7.96086 7.21039 7.58579 7.58546C7.21072 7.96054 7 8.46924 7 8.99968C7 9.53011 7.21072 10.0388 7.58579 10.4139C7.96086 10.789 8.46957 10.9997 9 10.9997ZM9 12.9997C7.93914 12.9997 6.92172 12.5783 6.17158 11.8281C5.42143 11.078 5 10.0605 5 8.99968C5 7.93881 5.42143 6.9214 6.17158 6.17125C6.92172 5.4211 7.93914 4.99968 9 4.99968C10.0609 4.99968 11.0783 5.4211 11.8284 6.17125C12.5786 6.9214 13 7.93881 13 8.99968C13 10.0605 12.5786 11.078 11.8284 11.8281C11.0783 12.5783 10.0609 12.9997 9 12.9997Z" fill="#1C1917"/>
</svg>
